<?xml version="1.0" encoding="UTF-8"?>
<svg xmlns="http://www.w3.org/2000/svg" version="1.1" width="100" height="100" viewBox="0 0 100 100"><rect x="0" y="0" width="100" height="100" fill="#ffffff"/><g transform="scale(4)"><g transform="translate(0,0)"><path fill-rule="evenodd" d="M8 0L8 1L9 1L9 2L10 2L10 3L11 3L11 1L13 1L13 2L12 2L12 4L11 4L11 5L10 5L10 4L9 4L9 5L10 5L10 8L9 8L9 6L8 6L8 8L9 8L9 9L8 9L8 10L6 10L6 9L7 9L7 8L6 8L6 9L5 9L5 8L3 8L3 9L5 9L5 10L4 10L4 13L3 13L3 14L2 14L2 13L1 13L1 12L2 12L2 11L1 11L1 10L0 10L0 17L1 17L1 15L3 15L3 16L6 16L6 17L8 17L8 18L9 18L9 19L11 19L11 20L8 20L8 22L9 22L9 21L10 21L10 23L8 23L8 25L9 25L9 24L10 24L10 23L11 23L11 24L12 24L12 25L13 25L13 24L12 24L12 22L13 22L13 23L14 23L14 24L15 24L15 23L14 23L14 22L15 22L15 21L17 21L17 22L16 22L16 23L17 23L17 24L16 24L16 25L17 25L17 24L18 24L18 25L19 25L19 24L21 24L21 25L22 25L22 24L24 24L24 25L25 25L25 21L23 21L23 22L20 22L20 23L19 23L19 24L18 24L18 22L19 22L19 21L21 21L21 16L22 16L22 18L24 18L24 19L23 19L23 20L25 20L25 18L24 18L24 16L25 16L25 14L24 14L24 13L25 13L25 10L24 10L24 9L25 9L25 8L24 8L24 9L19 9L19 8L18 8L18 9L17 9L17 6L16 6L16 7L15 7L15 6L14 6L14 7L13 7L13 5L12 5L12 4L14 4L14 5L15 5L15 4L14 4L14 0L11 0L11 1L9 1L9 0ZM16 2L16 3L17 3L17 2ZM16 4L16 5L17 5L17 4ZM11 5L11 7L12 7L12 9L10 9L10 10L9 10L9 11L8 11L8 12L7 12L7 11L6 11L6 10L5 10L5 12L7 12L7 13L4 13L4 15L6 15L6 16L7 16L7 15L6 15L6 14L8 14L8 12L9 12L9 11L10 11L10 10L12 10L12 11L13 11L13 13L11 13L11 12L10 12L10 14L9 14L9 15L8 15L8 17L9 17L9 18L10 18L10 17L12 17L12 16L14 16L14 17L13 17L13 18L12 18L12 20L13 20L13 21L14 21L14 20L15 20L15 19L16 19L16 16L14 16L14 12L16 12L16 13L17 13L17 14L16 14L16 15L17 15L17 16L18 16L18 15L20 15L20 16L21 16L21 15L20 15L20 13L21 13L21 14L23 14L23 13L24 13L24 12L21 12L21 11L18 11L18 12L16 12L16 11L17 11L17 9L16 9L16 8L15 8L15 7L14 7L14 8L13 8L13 7L12 7L12 5ZM0 8L0 9L2 9L2 8ZM14 8L14 9L12 9L12 10L15 10L15 11L16 11L16 9L15 9L15 8ZM18 9L18 10L19 10L19 9ZM22 10L22 11L24 11L24 10ZM18 12L18 13L19 13L19 12ZM10 14L10 16L12 16L12 15L13 15L13 14ZM17 14L17 15L18 15L18 14ZM23 15L23 16L24 16L24 15ZM17 17L17 20L20 20L20 17ZM14 18L14 19L13 19L13 20L14 20L14 19L15 19L15 18ZM18 18L18 19L19 19L19 18ZM21 23L21 24L22 24L22 23ZM0 0L0 7L7 7L7 0ZM1 1L1 6L6 6L6 1ZM2 2L2 5L5 5L5 2ZM18 0L18 7L25 7L25 0ZM19 1L19 6L24 6L24 1ZM20 2L20 5L23 5L23 2ZM0 18L0 25L7 25L7 18ZM1 19L1 24L6 24L6 19ZM2 20L2 23L5 23L5 20Z" fill="#000000"/></g></g></svg>
